<svg xmlns="http://www.w3.org/2000/svg" xmlns:xlink="http://www.w3.org/1999/xlink" width="500" zoomAndPan="magnify" viewBox="0 0 375 374.999991" height="500" preserveAspectRatio="xMidYMid meet" version="1.0"><path fill="#41c1ba" d="M 245.980469 365.671875 C 295.609375 349.402344 336.101562 312.964844 357.785156 266.058594 L 319.582031 264.644531 C 323.894531 272.5 324.214844 282.273438 319.695312 290.671875 C 312.972656 303.152344 297.808594 308.398438 284.816406 302.726562 C 296.265625 302.984375 306.894531 296.800781 312.328125 286.714844 C 316.054688 279.792969 316.894531 271.835938 314.949219 264.484375 L 256.683594 262.324219 L 313.46875 260.21875 C 312.679688 258.386719 311.703125 256.613281 310.535156 254.933594 C 312.796875 256.40625 314.773438 258.148438 316.4375 260.109375 L 361.089844 258.453125 C 362.722656 254.46875 364.226562 250.421875 365.585938 246.300781 L 211.9375 240.613281 L 368.96875 234.800781 C 372.894531 219.6875 375 203.828125 375 187.484375 C 375 180.726562 374.640625 174.054688 373.945312 167.476562 L 286.609375 164.246094 L 373.144531 161.039062 C 372.542969 156.808594 371.808594 152.617188 370.929688 148.480469 L 248.941406 143.960938 L 368.800781 139.519531 C 352.59375 78.0625 305.960938 28.957031 245.980469 9.285156 C 227.582031 3.261719 207.9375 0 187.523438 0 C 83.984375 0 0.0390625 83.933594 0.0390625 187.484375 C 0.0390625 291.03125 83.984375 374.96875 187.523438 374.96875 C 207.9375 374.96875 227.582031 371.703125 245.980469 365.671875 M 168.695312 316.789062 C 182.875 331.667969 199.476562 344.226562 217.855469 353.816406 C 208.019531 355.601562 197.875 356.53125 187.523438 356.53125 C 176.5 356.53125 165.726562 355.464844 155.28125 353.441406 L 109.058594 285.167969 Z M 98.734375 289.386719 L 98.863281 289.386719 C 100.445312 289.386719 101.972656 289.105469 103.390625 288.601562 L 145.871094 351.355469 C 125.203125 346.113281 106.0625 337.074219 89.214844 325.011719 Z M 92.261719 264.394531 C 88.222656 266.691406 85.496094 271.035156 85.496094 276.019531 C 85.496094 281.027344 88.246094 285.378906 92.308594 287.671875 L 83.488281 320.726562 C 54.402344 297.992188 32.949219 265.929688 23.621094 229.054688 L 64.3125 199.273438 C 67.105469 201.761719 70.785156 203.273438 74.816406 203.273438 C 75.097656 203.273438 75.375 203.265625 75.65625 203.25 Z M 112.226562 276.027344 C 112.226562 268.644531 106.246094 262.660156 98.863281 262.660156 L 98.675781 262.667969 L 82.070312 201.53125 C 84.222656 200.417969 86.078125 198.828125 87.511719 196.90625 L 118.410156 210.945312 C 122.714844 245.390625 136.351562 276.921875 156.71875 302.953125 L 111.859375 279.171875 C 112.101562 278.15625 112.226562 277.105469 112.226562 276.027344 Z M 98.675781 112.308594 L 98.863281 112.308594 C 105.476562 112.308594 110.972656 107.5 112.035156 101.195312 L 139.128906 98.972656 C 124.988281 125.332031 116.957031 155.472656 116.957031 187.484375 C 116.957031 192.804688 117.179688 198.074219 117.613281 203.28125 L 90.261719 190.851562 C 90.496094 189.765625 90.621094 188.644531 90.621094 187.484375 C 90.621094 181.371094 87.160156 176.078125 82.078125 173.445312 Z M 93.605469 86.65625 C 88.839844 88.695312 85.496094 93.429688 85.496094 98.949219 C 85.496094 103.933594 88.222656 108.277344 92.261719 110.570312 L 75.664062 171.710938 C 75.382812 171.695312 75.105469 171.6875 74.824219 171.6875 C 72.863281 171.6875 70.976562 172.046875 69.25 172.703125 L 33.644531 117.402344 C 45.796875 90.773438 64.648438 67.847656 88.054688 50.792969 Z M 105.53125 87.359375 C 103.917969 86.421875 102.09375 85.824219 100.148438 85.640625 L 94.09375 46.578125 C 116.835938 31.46875 143.441406 21.71875 172.117188 19.125 Z M 111.5 94.574219 C 111.1875 93.660156 110.773438 92.796875 110.285156 91.988281 L 181.972656 18.519531 C 183.820312 18.453125 185.667969 18.429688 187.523438 18.429688 C 197.882812 18.429688 208.019531 19.367188 217.855469 21.140625 C 186.820312 37.339844 160.871094 61.96875 143.066406 91.988281 Z M 233.238281 36.226562 C 240.597656 34.21875 248.460938 36.507812 253.597656 42.15625 C 258.722656 47.804688 260.261719 55.851562 257.554688 62.984375 C 263.996094 56.082031 264.066406 45.394531 257.714844 38.410156 C 251.375 31.421875 240.726562 30.46875 233.238281 36.226562 Z M 292.824219 90.421875 C 301.175781 91.148438 308.40625 96.492188 311.558594 104.269531 C 314.710938 112.042969 313.222656 120.914062 307.726562 127.242188 C 316.988281 122.578125 321.125 111.589844 317.238281 101.972656 C 313.335938 92.359375 302.71875 87.335938 292.824219 90.421875 Z M 329.230469 166.574219 C 339.089844 171.613281 345.292969 181.757812 345.28125 192.828125 C 345.265625 203.898438 339.050781 214.03125 329.179688 219.046875 C 342.835938 217.9375 353.363281 206.539062 353.371094 192.835938 C 353.378906 179.132812 342.875 167.710938 329.230469 166.574219 Z M 18.46875 187.484375 C 18.46875 165.328125 22.742188 144.160156 30.492188 124.769531 L 63.664062 176.292969 C 60.792969 179.15625 59.019531 183.109375 59.019531 187.484375 C 59.019531 189.78125 59.503906 191.964844 60.394531 193.929688 L 21.996094 222.023438 C 19.6875 210.875 18.46875 199.324219 18.46875 187.484375 Z M 18.46875 187.484375 " fill-opacity="1" fill-rule="evenodd"/></svg>